<svg width="72" height="92" viewBox="0 0 72 92" xmlns="http://www.w3.org/2000/svg"><title>oden-logo-bare-with-text</title><g fill="none" fill-rule="evenodd"><path d="M37 69c20 0 31-5.327 31-23 0-17.673-14.327-32-32-32C18.327 14 4 28.327 4 46c0 17.673 13 23 33 23z" stroke="#000" stroke-width="2" fill="#FFE278"/><g stroke="#000" stroke-width="2"><path d="M42 10.07l4.243 4.244s4.62-7.45 3.207-8.864C48.036 4.036 42 10.07 42 10.07zM29.314 10.07l-4.243 4.244s-4.277-7.107-2.863-8.52c1.414-1.415 7.107 4.277 7.107 4.277z" fill="#E6D9D9"/><path d="M36 19c-8 0-12-2-12-2S26 7 36 7s12 10 12 10-4 2-12 2z" fill="#B1A68A"/></g><g transform="translate(12 39)"><path d="M6 12c3.314 0 6-2.686 6-6S9.314 0 6 0 0 2.686 0 6s2.686 6 6 6z" stroke="#000" stroke-width="2" fill="#FFF"/><circle fill="#000" cx="6" cy="5" r="1"/><path d="M0 13c.757-.71 2-2 6-2s6 2 6 2" stroke="#000" stroke-width="2" fill="#FFE278"/></g><g transform="translate(48 39)"><circle stroke="#000" stroke-width="2" fill="#FFF" cx="6" cy="6" r="6"/><circle fill="#000" cx="6" cy="5" r="1"/><path d="M0 13c.757-.71 2-2 6-2s6 2 6 2" stroke="#000" stroke-width="2" fill="#FFE278"/></g><path d="M30 56s0 4 6 4 6-4 6-4" stroke="#000" stroke-width="2"/><path d="M7.397 80.58c0-.713.076-1.404.228-2.07.15-.67.393-1.264.725-1.788.33-.523.764-.94 1.298-1.25.534-.312 1.183-.468 1.947-.468.765 0 1.414.156 1.948.467.534.312.967.73 1.298 1.252.333.524.575 1.12.726 1.787.152.666.227 1.357.227 2.07 0 .682-.075 1.346-.227 1.99-.15.646-.393 1.226-.725 1.742-.33.516-.763.93-1.297 1.24-.534.31-1.183.467-1.948.467-.764 0-1.413-.157-1.947-.468-.534-.31-.967-.724-1.298-1.24-.332-.516-.574-1.096-.725-1.74-.152-.646-.228-1.31-.228-1.992zM4 80.58c0 1.183.173 2.287.52 3.31.346 1.025.843 1.916 1.492 2.675.65.76 1.447 1.354 2.392 1.786.945.434 2.008.65 3.19.65 1.2 0 2.266-.216 3.204-.65.938-.43 1.73-1.026 2.38-1.785.65-.76 1.147-1.65 1.493-2.674.348-1.023.52-2.127.52-3.31 0-1.214-.172-2.34-.52-3.38-.345-1.04-.842-1.946-1.492-2.72-.65-.773-1.442-1.38-2.38-1.82-.938-.44-2.005-.66-3.203-.66-1.183 0-2.246.22-3.19.66-.946.44-1.743 1.047-2.393 1.82-.65.774-1.146 1.68-1.493 2.72-.347 1.04-.52 2.166-.52 3.38zm22.202 5.052v-10.24h2.424c.836 0 1.54.124 2.11.374.57.25 1.027.61 1.374 1.08.346.472.595 1.037.746 1.697.152.66.227 1.4.227 2.22 0 .894-.108 1.652-.324 2.274-.218.623-.506 1.127-.867 1.514-.36.388-.772.665-1.233.832-.462.166-.938.25-1.43.25h-3.028zm-3.397-13.245v16.25h6.665c1.182 0 2.21-.21 3.083-.627.873-.417 1.6-.99 2.186-1.718.583-.728 1.02-1.593 1.308-2.595.288-1 .433-2.093.433-3.277 0-1.35-.176-2.526-.53-3.527-.353-1-.843-1.836-1.47-2.503-.63-.668-1.37-1.17-2.23-1.502-.858-.334-1.785-.5-2.78-.5h-6.665zm17.333 0v16.25h11.728V85.63h-8.33V81.65h7.486v-2.777h-7.487V75.39h8.158v-3.003H40.138zm15.32 0v16.25h3.18v-10.88h.045l6.427 10.88h3.397v-16.25h-3.18v10.9h-.044l-6.45-10.9H55.46z" fill="#222"/></g></svg>