<svg width="72" height="72" viewBox="0 0 72 72" xmlns="http://www.w3.org/2000/svg"><title>oden-logo-bare</title><g fill="none" fill-rule="evenodd"><path d="M37 69c20 0 31-5.327 31-23 0-17.673-14.327-32-32-32C18.327 14 4 28.327 4 46c0 17.673 13 23 33 23z" stroke="#000" stroke-width="2" fill="#FFE278"/><g stroke="#000" stroke-width="2"><path d="M42 10.07l4.243 4.244s4.62-7.45 3.207-8.864C48.036 4.036 42 10.07 42 10.07zM29.314 10.07l-4.243 4.244s-4.277-7.107-2.863-8.52c1.414-1.415 7.107 4.277 7.107 4.277z" fill="#E6D9D9"/><path d="M36 19c-8 0-12-2-12-2S26 7 36 7s12 10 12 10-4 2-12 2z" fill="#B1A68A"/></g><g transform="translate(12 39)"><path d="M6 12c3.314 0 6-2.686 6-6S9.314 0 6 0 0 2.686 0 6s2.686 6 6 6z" stroke="#000" stroke-width="2" fill="#FFF"/><circle fill="#000" cx="6" cy="5" r="1"/><path d="M0 13c.757-.71 2-2 6-2s6 2 6 2" stroke="#000" stroke-width="2" fill="#FFE278"/></g><g transform="translate(48 39)"><circle stroke="#000" stroke-width="2" fill="#FFF" cx="6" cy="6" r="6"/><circle fill="#000" cx="6" cy="5" r="1"/><path d="M0 13c.757-.71 2-2 6-2s6 2 6 2" stroke="#000" stroke-width="2" fill="#FFE278"/></g><path d="M30 56s0 4 6 4 6-4 6-4" stroke="#000" stroke-width="2"/></g></svg>