<svg width="96" height="108" viewBox="0 0 96 108" xmlns="http://www.w3.org/2000/svg"><title>oden-logo-with-text</title><g fill="none" fill-rule="evenodd"><g stroke="#000" stroke-width="2" fill="#FFE278"><path d="M28 65s-2 4-2 9c0 2 2 2 2 2s2 0 2-2c0-4 6-9 6-9h-8zM64 65s2 4 2 9c0 2-2 2-2 2s-2 0-2-2c0-4-6-9-6-9h8z"/></g><path d="M18 48l-2-4S4 46 4 49s5.567 4.422 6 5c.433.578-2-1-3 0s1 3 4 3 5-1 4-3-3-4-3-4l6-2zM77.222 45.56s5-1 9-3 4 2 4 2-8 7-13 7 0-6 0-6z" stroke="#000" stroke-width="2" fill="#FFE278"/><g stroke="#000" stroke-width="2"><path d="M86 29h4v45s0 2-2 2-2-2-2-2V29zM86 29v-4h4v4h-4z" fill="#F0D491"/><path d="M86.333 25L83 20s2.5-15 5-15 5 15 5 15l-3.333 5h-3.334z" fill="#E6D9D9"/></g><ellipse stroke="#000" stroke-width="2" fill="#FFE278" cx="88.177" cy="43.437" rx="4.5" ry="3"/><path d="M47 69c20 0 31-5.327 31-23 0-17.673-14.327-32-32-32-17.673 0-32 14.327-32 32 0 17.673 13 23 33 23z" stroke="#000" stroke-width="2" fill="#FFE278"/><g stroke="#000" stroke-width="2"><path d="M52 10.07l4.243 4.244s4.62-7.45 3.207-8.864C58.036 4.036 52 10.07 52 10.07zM39.314 10.07l-4.243 4.244s-4.277-7.107-2.863-8.52c1.414-1.415 7.107 4.277 7.107 4.277z" fill="#E6D9D9"/><path d="M46 19c-8 0-12-2-12-2S36 7 46 7s12 10 12 10-4 2-12 2z" fill="#B1A68A"/></g><g transform="translate(22 39)"><path d="M6 12c3.314 0 6-2.686 6-6S9.314 0 6 0 0 2.686 0 6s2.686 6 6 6z" stroke="#000" stroke-width="2" fill="#FFF"/><circle fill="#000" cx="6" cy="5" r="1"/><path d="M0 13c.757-.71 2-2 6-2s6 2 6 2" stroke="#000" stroke-width="2" fill="#FFE278"/></g><g transform="translate(58 39)"><circle stroke="#000" stroke-width="2" fill="#FFF" cx="6" cy="6" r="6"/><circle fill="#000" cx="6" cy="5" r="1"/><path d="M0 13c.757-.71 2-2 6-2s6 2 6 2" stroke="#000" stroke-width="2" fill="#FFE278"/></g><path d="M40 56s0 4 6 4 6-4 6-4" stroke="#000" stroke-width="2"/><path d="M8.633 92.608c0-.965.103-1.9.31-2.802.206-.903.536-1.71.988-2.417.454-.71 1.044-1.274 1.772-1.695.728-.42 1.613-.63 2.655-.63 1.043 0 1.928.21 2.656.63.728.42 1.318.986 1.77 1.694.453.707.783 1.513.99 2.416.206.903.31 1.837.31 2.802 0 .923-.104 1.82-.31 2.694-.207.872-.537 1.657-.99 2.355-.452.698-1.042 1.258-1.77 1.678-.728.42-1.613.632-2.656.632-1.042 0-1.927-.21-2.655-.632-.728-.42-1.318-.98-1.77-1.678-.453-.698-.783-1.483-.99-2.355-.206-.873-.31-1.77-.31-2.694zm-4.633 0c0 1.6.236 3.094.708 4.48.472 1.385 1.15 2.59 2.036 3.617.886 1.027 1.972 1.832 3.26 2.417 1.29.585 2.74.878 4.353.878 1.633 0 3.09-.293 4.368-.878 1.278-.585 2.36-1.39 3.245-2.417.886-1.026 1.564-2.232 2.037-3.617.472-1.386.708-2.88.708-4.48 0-1.642-.236-3.166-.708-4.573-.473-1.406-1.15-2.632-2.037-3.68-.885-1.046-1.967-1.867-3.245-2.462-1.28-.595-2.735-.893-4.368-.893-1.613 0-3.064.298-4.352.893-1.29.595-2.375 1.416-3.26 2.463-.886 1.047-1.565 2.273-2.037 3.68C4.236 89.44 4 90.965 4 92.607zm30.275 6.835V85.588h3.305c1.14 0 2.1.17 2.877.508.777.338 1.402.826 1.874 1.462.473.637.813 1.4 1.02 2.294.206.893.31 1.894.31 3.002 0 1.21-.15 2.237-.444 3.08-.295.84-.688 1.523-1.18 2.047-.492.524-1.052.9-1.682 1.124-.63.226-1.28.34-1.947.34h-4.132zm-4.632-17.92v21.984h9.088c1.614 0 3.016-.282 4.206-.846 1.19-.564 2.184-1.34 2.98-2.324.797-.985 1.392-2.155 1.786-3.51.393-1.355.59-2.833.59-4.434 0-1.827-.24-3.417-.723-4.772-.483-1.355-1.152-2.484-2.008-3.387-.855-.903-1.87-1.58-3.04-2.032-1.17-.45-2.433-.677-3.79-.677h-9.09zm23.636 0v21.984H69.27v-4.064h-11.36v-5.388h10.21V90.3H57.91v-4.712h11.124v-4.065H53.28zm20.89 0v21.984h4.338V88.79h.06l8.763 14.717h4.634V81.523h-4.338v14.75h-.06l-8.792-14.75H74.17z" fill="#222"/></g></svg>