<svg width="96" height="80" viewBox="0 0 96 80" xmlns="http://www.w3.org/2000/svg"><title>oden-logo</title><g fill="none" fill-rule="evenodd"><g stroke="#000" stroke-width="2" fill="#FFE278"><path d="M28 65s-2 4-2 9c0 2 2 2 2 2s2 0 2-2c0-4 6-9 6-9h-8zM64 65s2 4 2 9c0 2-2 2-2 2s-2 0-2-2c0-4-6-9-6-9h8z"/></g><path d="M18 48l-2-4S4 46 4 49s5.567 4.422 6 5c.433.578-2-1-3 0s1 3 4 3 5-1 4-3-3-4-3-4l6-2zM77.222 45.56s5-1 9-3 4 2 4 2-8 7-13 7 0-6 0-6z" stroke="#000" stroke-width="2" fill="#FFE278"/><g stroke="#000" stroke-width="2"><path d="M86 29h4v45s0 2-2 2-2-2-2-2V29zM86 29v-4h4v4h-4z" fill="#F0D491"/><path d="M86.333 25L83 20s2.5-15 5-15 5 15 5 15l-3.333 5h-3.334z" fill="#E6D9D9"/></g><ellipse stroke="#000" stroke-width="2" fill="#FFE278" cx="88.177" cy="43.437" rx="4.5" ry="3"/><path d="M47 69c20 0 31-5.327 31-23 0-17.673-14.327-32-32-32-17.673 0-32 14.327-32 32 0 17.673 13 23 33 23z" stroke="#000" stroke-width="2" fill="#FFE278"/><g stroke="#000" stroke-width="2"><path d="M52 10.07l4.243 4.244s4.62-7.45 3.207-8.864C58.036 4.036 52 10.07 52 10.07zM39.314 10.07l-4.243 4.244s-4.277-7.107-2.863-8.52c1.414-1.415 7.107 4.277 7.107 4.277z" fill="#E6D9D9"/><path d="M46 19c-8 0-12-2-12-2S36 7 46 7s12 10 12 10-4 2-12 2z" fill="#B1A68A"/></g><g transform="translate(22 39)"><path d="M6 12c3.314 0 6-2.686 6-6S9.314 0 6 0 0 2.686 0 6s2.686 6 6 6z" stroke="#000" stroke-width="2" fill="#FFF"/><circle fill="#000" cx="6" cy="5" r="1"/><path d="M0 13c.757-.71 2-2 6-2s6 2 6 2" stroke="#000" stroke-width="2" fill="#FFE278"/></g><g transform="translate(58 39)"><circle stroke="#000" stroke-width="2" fill="#FFF" cx="6" cy="6" r="6"/><circle fill="#000" cx="6" cy="5" r="1"/><path d="M0 13c.757-.71 2-2 6-2s6 2 6 2" stroke="#000" stroke-width="2" fill="#FFE278"/></g><path d="M40 56s0 4 6 4 6-4 6-4" stroke="#000" stroke-width="2"/></g></svg>